<mxfile host="app.diagrams.net" agent="Mozilla/5.0 (Macintosh; Intel Mac OS X 10_15_7) AppleWebKit/605.1.15 (KHTML, like Gecko) Version/17.4.1 Safari/605.1.15" version="24.7.14">
  <diagram name="Page-1" id="j7eVs1NFJfaRX7olnLY1">
    <mxGraphModel dx="3180" dy="3257" grid="1" gridSize="10" guides="1" tooltips="1" connect="1" arrows="1" fold="1" page="1" pageScale="1" pageWidth="850" pageHeight="1100" math="0" shadow="0">
      <root>
        <mxCell id="0" />
        <mxCell id="1" parent="0" />
        <mxCell id="vvw0wGPZV061GVPOFTdN-21" style="edgeStyle=orthogonalEdgeStyle;rounded=0;orthogonalLoop=1;jettySize=auto;html=1;" parent="1" source="vvw0wGPZV061GVPOFTdN-1" target="vvw0wGPZV061GVPOFTdN-2" edge="1">
          <mxGeometry relative="1" as="geometry">
            <Array as="points">
              <mxPoint x="820" y="590" />
              <mxPoint x="630" y="590" />
            </Array>
          </mxGeometry>
        </mxCell>
        <mxCell id="vvw0wGPZV061GVPOFTdN-22" value="Data used to fine-tune model to improve image generation" style="edgeLabel;align=center;verticalAlign=middle;resizable=0;points=[];fontSize=20;html=1;" parent="vvw0wGPZV061GVPOFTdN-21" vertex="1" connectable="0">
          <mxGeometry x="0.4118" y="-4" relative="1" as="geometry">
            <mxPoint as="offset" />
          </mxGeometry>
        </mxCell>
        <mxCell id="vvw0wGPZV061GVPOFTdN-28" style="edgeStyle=orthogonalEdgeStyle;rounded=0;orthogonalLoop=1;jettySize=auto;html=1;dashed=1;" parent="1" source="vvw0wGPZV061GVPOFTdN-1" target="vvw0wGPZV061GVPOFTdN-25" edge="1">
          <mxGeometry relative="1" as="geometry">
            <Array as="points">
              <mxPoint x="830" y="860" />
              <mxPoint x="830" y="860" />
            </Array>
          </mxGeometry>
        </mxCell>
        <mxCell id="vvw0wGPZV061GVPOFTdN-41" value="Uses images" style="edgeLabel;html=1;align=center;verticalAlign=middle;resizable=0;points=[];" parent="vvw0wGPZV061GVPOFTdN-28" vertex="1" connectable="0">
          <mxGeometry x="0.1148" y="2" relative="1" as="geometry">
            <mxPoint as="offset" />
          </mxGeometry>
        </mxCell>
        <mxCell id="vvw0wGPZV061GVPOFTdN-30" style="edgeStyle=orthogonalEdgeStyle;rounded=0;orthogonalLoop=1;jettySize=auto;html=1;dashed=1;" parent="1" source="vvw0wGPZV061GVPOFTdN-1" target="vvw0wGPZV061GVPOFTdN-26" edge="1">
          <mxGeometry relative="1" as="geometry">
            <Array as="points">
              <mxPoint x="1090" y="720" />
            </Array>
          </mxGeometry>
        </mxCell>
        <mxCell id="vvw0wGPZV061GVPOFTdN-36" value="Uses images" style="edgeLabel;html=1;align=center;verticalAlign=middle;resizable=0;points=[];" parent="vvw0wGPZV061GVPOFTdN-30" vertex="1" connectable="0">
          <mxGeometry x="-0.5613" relative="1" as="geometry">
            <mxPoint as="offset" />
          </mxGeometry>
        </mxCell>
        <mxCell id="vvw0wGPZV061GVPOFTdN-32" style="edgeStyle=orthogonalEdgeStyle;rounded=0;orthogonalLoop=1;jettySize=auto;html=1;dashed=1;" parent="1" source="vvw0wGPZV061GVPOFTdN-1" target="vvw0wGPZV061GVPOFTdN-24" edge="1">
          <mxGeometry relative="1" as="geometry">
            <Array as="points">
              <mxPoint x="550" y="720" />
            </Array>
          </mxGeometry>
        </mxCell>
        <mxCell id="vvw0wGPZV061GVPOFTdN-38" value="Uses images" style="edgeLabel;html=1;align=center;verticalAlign=middle;resizable=0;points=[];" parent="vvw0wGPZV061GVPOFTdN-32" vertex="1" connectable="0">
          <mxGeometry x="-0.5627" y="1" relative="1" as="geometry">
            <mxPoint x="1" as="offset" />
          </mxGeometry>
        </mxCell>
        <mxCell id="vvw0wGPZV061GVPOFTdN-1" value="&lt;font style=&quot;font-size: 18px;&quot;&gt;Image database&lt;/font&gt;" style="shape=cylinder3;whiteSpace=wrap;html=1;boundedLbl=1;backgroundOutline=1;size=15;" parent="1" vertex="1">
          <mxGeometry x="750" y="610" width="140" height="160" as="geometry" />
        </mxCell>
        <mxCell id="vvw0wGPZV061GVPOFTdN-8" style="edgeStyle=orthogonalEdgeStyle;rounded=0;orthogonalLoop=1;jettySize=auto;html=1;" parent="1" source="vvw0wGPZV061GVPOFTdN-2" target="vvw0wGPZV061GVPOFTdN-4" edge="1">
          <mxGeometry relative="1" as="geometry" />
        </mxCell>
        <mxCell id="vvw0wGPZV061GVPOFTdN-9" value="Generates" style="edgeLabel;html=1;align=center;verticalAlign=middle;resizable=0;points=[];fontSize=20;" parent="vvw0wGPZV061GVPOFTdN-8" vertex="1" connectable="0">
          <mxGeometry x="-0.1182" y="1" relative="1" as="geometry">
            <mxPoint as="offset" />
          </mxGeometry>
        </mxCell>
        <mxCell id="vvw0wGPZV061GVPOFTdN-2" value="&lt;font style=&quot;font-size: 18px;&quot;&gt;Image-to-Image AiModel&lt;/font&gt;" style="rounded=1;whiteSpace=wrap;html=1;" parent="1" vertex="1">
          <mxGeometry x="520" y="164.5" width="220" height="110" as="geometry" />
        </mxCell>
        <mxCell id="vvw0wGPZV061GVPOFTdN-4" value="" style="shape=image;html=1;verticalAlign=top;verticalLabelPosition=bottom;labelBackgroundColor=#ffffff;imageAspect=0;aspect=fixed;image=https://cdn4.iconfinder.com/data/icons/48-bubbles/48/18.Pictures-Day-128.png" parent="1" vertex="1">
          <mxGeometry x="920" y="130" width="179" height="179" as="geometry" />
        </mxCell>
        <mxCell id="vvw0wGPZV061GVPOFTdN-7" value="" style="editableCssRules=.*;html=1;fontColor=#999999;shape=image;verticalLabelPosition=middle;verticalAlign=middle;labelPosition=right;align=left;spacingLeft=20;part=1;points=[];imageAspect=0;image=data:image/svg+xml,PHN2ZyB4bWxucz0iaHR0cDovL3d3dy53My5vcmcvMjAwMC9zdmciIHhtbG5zOnY9Imh0dHBzOi8vdmVjdGEuaW8vbmFubyIgd2lkdGg9IjIwIiBoZWlnaHQ9IjE3LjUiIGZpbGwtcnVsZT0iZXZlbm9kZCIgdmlld0JveD0iMCAwIDIwIDE3LjUiPiYjeGE7CTxzdHlsZSB0eXBlPSJ0ZXh0L2NzcyI+JiN4YTsJLnN0MHtmaWxsOiM0Mjg1ZjQ7fSYjeGE7CS5zdDF7ZmlsbDojNjY5ZGY2O30mI3hhOwk8L3N0eWxlPiYjeGE7CTxwYXRoIGNsYXNzPSJzdDAiIGQ9Ik0xOC45MSAxMC42M0wyMCA4Ljc1IDE3LjgyIDVoLTMuMDdsLTEuMDYtMS44NkgxMi41VjEuODhoMS45NGwxLjA2IDEuODdoMS41OUwxNC45IDBoLTQuMjd2NWgxLjczbC43MyAxLjI1aC0yLjQ2djIuNWgyLjI2bDEuMDUtMS44N2gyLjgxbC43MiAxLjI1aC0yLjhMMTMuNjIgMTBoLTIuOTl2NC4zOGgzLjRsLS43MiAxLjI1aC0yLjY4djEuODdoNC4yN2wzLjI4LTUuNjJoLTIuMDlsLS43MyAxLjI1SDEyLjV2LTEuMjVoMi4xNGwuNzQtMS4yNXoiLz4mI3hhOwk8cGF0aCBjbGFzcz0ic3QxIiBkPSJNMS4wOSAxMC42M0wwIDguNzUgMi4xOCA1aDMuMDdsMS4wNi0xLjg2SDcuNVYxLjg4SDUuNTZMNC41IDMuNzVIMi45MUw1LjEgMGg0LjI4djVINy42NGwtLjczIDEuMjVoMi40N3YyLjVINy4xMUw2LjA2IDYuODhIMy4yNWwtLjcyIDEuMjVoMi44TDYuMzggMTBoM3Y0LjM4SDUuOTdsLjcyIDEuMjVoMi42OXYxLjg3SDUuMWwtMy4yOC01LjYyaDIuMDlsLjczIDEuMjVINy41di0xLjI1SDUuMzZsLS43NC0xLjI1eiIvPiYjeGE7PC9zdmc+;" parent="1" vertex="1">
          <mxGeometry x="420" y="186" width="85" height="67" as="geometry" />
        </mxCell>
        <mxCell id="vvw0wGPZV061GVPOFTdN-19" value="" style="edgeStyle=orthogonalEdgeStyle;rounded=0;orthogonalLoop=1;jettySize=auto;html=1;" parent="1" source="vvw0wGPZV061GVPOFTdN-11" target="vvw0wGPZV061GVPOFTdN-12" edge="1">
          <mxGeometry relative="1" as="geometry">
            <Array as="points">
              <mxPoint x="835" y="-260" />
            </Array>
          </mxGeometry>
        </mxCell>
        <mxCell id="vvw0wGPZV061GVPOFTdN-11" value="IKEA Designer" style="shape=umlActor;verticalLabelPosition=bottom;verticalAlign=top;html=1;outlineConnect=0;" parent="1" vertex="1">
          <mxGeometry x="710" y="-290" width="30" height="60" as="geometry" />
        </mxCell>
        <mxCell id="vvw0wGPZV061GVPOFTdN-13" style="edgeStyle=orthogonalEdgeStyle;rounded=0;orthogonalLoop=1;jettySize=auto;html=1;" parent="1" source="vvw0wGPZV061GVPOFTdN-12" target="vvw0wGPZV061GVPOFTdN-2" edge="1">
          <mxGeometry relative="1" as="geometry">
            <Array as="points">
              <mxPoint x="835" />
              <mxPoint x="630" />
            </Array>
          </mxGeometry>
        </mxCell>
        <mxCell id="vvw0wGPZV061GVPOFTdN-15" value="Uses" style="edgeLabel;html=1;align=center;verticalAlign=middle;resizable=0;points=[];fontSize=20;" parent="vvw0wGPZV061GVPOFTdN-13" vertex="1" connectable="0">
          <mxGeometry x="-0.2931" relative="1" as="geometry">
            <mxPoint x="-43" as="offset" />
          </mxGeometry>
        </mxCell>
        <mxCell id="vvw0wGPZV061GVPOFTdN-16" style="edgeStyle=orthogonalEdgeStyle;rounded=0;orthogonalLoop=1;jettySize=auto;html=1;" parent="1" source="vvw0wGPZV061GVPOFTdN-12" target="vvw0wGPZV061GVPOFTdN-4" edge="1">
          <mxGeometry relative="1" as="geometry">
            <Array as="points">
              <mxPoint x="835" />
              <mxPoint x="1010" />
            </Array>
          </mxGeometry>
        </mxCell>
        <mxCell id="vvw0wGPZV061GVPOFTdN-17" value="Accepts / Rejects" style="edgeLabel;html=1;align=center;verticalAlign=middle;resizable=0;points=[];fontSize=20;" parent="vvw0wGPZV061GVPOFTdN-16" vertex="1" connectable="0">
          <mxGeometry x="-0.2477" y="1" relative="1" as="geometry">
            <mxPoint x="97" y="51" as="offset" />
          </mxGeometry>
        </mxCell>
        <mxCell id="vvw0wGPZV061GVPOFTdN-12" value="&lt;font style=&quot;font-size: 24px;&quot;&gt;Ai model GUI&lt;/font&gt;" style="rounded=1;whiteSpace=wrap;html=1;" parent="1" vertex="1">
          <mxGeometry x="750" y="-170" width="170" height="110" as="geometry" />
        </mxCell>
        <mxCell id="vvw0wGPZV061GVPOFTdN-18" style="edgeStyle=orthogonalEdgeStyle;rounded=0;orthogonalLoop=1;jettySize=auto;html=1;entryX=0.5;entryY=0;entryDx=0;entryDy=0;entryPerimeter=0;" parent="1" source="vvw0wGPZV061GVPOFTdN-4" target="vvw0wGPZV061GVPOFTdN-23" edge="1">
          <mxGeometry relative="1" as="geometry">
            <mxPoint x="1080" y="650" as="targetPoint" />
            <Array as="points">
              <mxPoint x="1009" y="590" />
              <mxPoint x="820" y="590" />
            </Array>
          </mxGeometry>
        </mxCell>
        <mxCell id="vvw0wGPZV061GVPOFTdN-20" value="Stored in" style="edgeLabel;html=1;align=center;verticalAlign=middle;resizable=0;points=[];fontSize=20;" parent="vvw0wGPZV061GVPOFTdN-18" vertex="1" connectable="0">
          <mxGeometry x="-0.2218" y="-2" relative="1" as="geometry">
            <mxPoint y="-1" as="offset" />
          </mxGeometry>
        </mxCell>
        <mxCell id="vvw0wGPZV061GVPOFTdN-23" value="" style="verticalLabelPosition=bottom;html=1;verticalAlign=top;align=center;strokeColor=none;fillColor=#00BEF2;shape=mxgraph.azure.sql_database;" parent="1" vertex="1">
          <mxGeometry x="750" y="610" width="140" height="80" as="geometry" />
        </mxCell>
        <mxCell id="vvw0wGPZV061GVPOFTdN-31" style="edgeStyle=orthogonalEdgeStyle;rounded=0;orthogonalLoop=1;jettySize=auto;html=1;dashed=1;" parent="1" source="vvw0wGPZV061GVPOFTdN-24" target="vvw0wGPZV061GVPOFTdN-1" edge="1">
          <mxGeometry relative="1" as="geometry">
            <Array as="points">
              <mxPoint x="570" y="740" />
            </Array>
          </mxGeometry>
        </mxCell>
        <mxCell id="vvw0wGPZV061GVPOFTdN-39" value="Provides feedback" style="edgeLabel;html=1;align=center;verticalAlign=middle;resizable=0;points=[];" parent="vvw0wGPZV061GVPOFTdN-31" vertex="1" connectable="0">
          <mxGeometry x="0.5521" y="-1" relative="1" as="geometry">
            <mxPoint as="offset" />
          </mxGeometry>
        </mxCell>
        <mxCell id="vvw0wGPZV061GVPOFTdN-24" value="" style="sketch=0;outlineConnect=0;fontColor=#232F3E;gradientColor=none;fillColor=#232F3D;strokeColor=none;dashed=0;verticalLabelPosition=bottom;verticalAlign=top;align=center;html=1;fontSize=12;fontStyle=0;aspect=fixed;pointerEvents=1;shape=mxgraph.aws4.client;" parent="1" vertex="1">
          <mxGeometry x="510" y="950" width="102.63" height="100" as="geometry" />
        </mxCell>
        <mxCell id="vvw0wGPZV061GVPOFTdN-27" style="edgeStyle=orthogonalEdgeStyle;rounded=0;orthogonalLoop=1;jettySize=auto;html=1;dashed=1;" parent="1" source="vvw0wGPZV061GVPOFTdN-25" target="vvw0wGPZV061GVPOFTdN-1" edge="1">
          <mxGeometry relative="1" as="geometry">
            <Array as="points">
              <mxPoint x="810" y="860" />
              <mxPoint x="810" y="860" />
            </Array>
          </mxGeometry>
        </mxCell>
        <mxCell id="vvw0wGPZV061GVPOFTdN-40" value="Provides feedback" style="edgeLabel;html=1;align=center;verticalAlign=middle;resizable=0;points=[];" parent="vvw0wGPZV061GVPOFTdN-27" vertex="1" connectable="0">
          <mxGeometry x="0.4926" y="1" relative="1" as="geometry">
            <mxPoint as="offset" />
          </mxGeometry>
        </mxCell>
        <mxCell id="vvw0wGPZV061GVPOFTdN-25" value="" style="sketch=0;outlineConnect=0;fontColor=#232F3E;gradientColor=none;fillColor=#232F3D;strokeColor=none;dashed=0;verticalLabelPosition=bottom;verticalAlign=top;align=center;html=1;fontSize=12;fontStyle=0;aspect=fixed;pointerEvents=1;shape=mxgraph.aws4.client;" parent="1" vertex="1">
          <mxGeometry x="770" y="950" width="102.63" height="100" as="geometry" />
        </mxCell>
        <mxCell id="vvw0wGPZV061GVPOFTdN-29" style="edgeStyle=orthogonalEdgeStyle;rounded=0;orthogonalLoop=1;jettySize=auto;html=1;dashed=1;" parent="1" source="vvw0wGPZV061GVPOFTdN-26" target="vvw0wGPZV061GVPOFTdN-1" edge="1">
          <mxGeometry relative="1" as="geometry">
            <Array as="points">
              <mxPoint x="1070" y="740" />
            </Array>
          </mxGeometry>
        </mxCell>
        <mxCell id="vvw0wGPZV061GVPOFTdN-37" value="Provides feedback" style="edgeLabel;html=1;align=center;verticalAlign=middle;resizable=0;points=[];" parent="vvw0wGPZV061GVPOFTdN-29" vertex="1" connectable="0">
          <mxGeometry x="0.5749" relative="1" as="geometry">
            <mxPoint x="8" as="offset" />
          </mxGeometry>
        </mxCell>
        <mxCell id="vvw0wGPZV061GVPOFTdN-26" value="" style="sketch=0;outlineConnect=0;fontColor=#232F3E;gradientColor=none;fillColor=#232F3D;strokeColor=none;dashed=0;verticalLabelPosition=bottom;verticalAlign=top;align=center;html=1;fontSize=12;fontStyle=0;aspect=fixed;pointerEvents=1;shape=mxgraph.aws4.client;" parent="1" vertex="1">
          <mxGeometry x="1030" y="950" width="102.63" height="100" as="geometry" />
        </mxCell>
        <mxCell id="vvw0wGPZV061GVPOFTdN-33" value="&lt;font style=&quot;font-size: 20px;&quot;&gt;Client&lt;/font&gt;" style="text;html=1;align=center;verticalAlign=middle;whiteSpace=wrap;rounded=0;" parent="1" vertex="1">
          <mxGeometry x="531.31" y="1060" width="60" height="30" as="geometry" />
        </mxCell>
        <mxCell id="vvw0wGPZV061GVPOFTdN-34" value="&lt;font style=&quot;font-size: 20px;&quot;&gt;Client&lt;/font&gt;" style="text;html=1;align=center;verticalAlign=middle;whiteSpace=wrap;rounded=0;" parent="1" vertex="1">
          <mxGeometry x="791.3199999999999" y="1060" width="60" height="30" as="geometry" />
        </mxCell>
        <mxCell id="vvw0wGPZV061GVPOFTdN-35" value="&lt;font style=&quot;font-size: 20px;&quot;&gt;Client&lt;/font&gt;" style="text;html=1;align=center;verticalAlign=middle;whiteSpace=wrap;rounded=0;" parent="1" vertex="1">
          <mxGeometry x="1051.32" y="1060" width="60" height="30" as="geometry" />
        </mxCell>
        <mxCell id="vvw0wGPZV061GVPOFTdN-42" value="" style="outlineConnect=0;dashed=0;verticalLabelPosition=bottom;verticalAlign=top;align=center;html=1;shape=mxgraph.aws3.management_console;fillColor=#D2D3D3;gradientColor=none;" parent="1" vertex="1">
          <mxGeometry x="670" y="-146.5" width="63" height="63" as="geometry" />
        </mxCell>
      </root>
    </mxGraphModel>
  </diagram>
</mxfile>
